<svg width="20" height="20" viewBox="0 0 20 20" fill="none" xmlns="http://www.w3.org/2000/svg">
<path fill-rule="evenodd" clip-rule="evenodd" d="M10.625 3.125H10V10H16.875V9.375C16.875 5.92322 14.0767 3.125 10.625 3.125ZM11.25 8.75V4.41368C13.5117 4.69572 15.3042 6.4883 15.5863 8.75H11.25ZM3.75 11.25C3.75 8.70025 5.65856 6.59624 8.125 6.28868V11.875H13.7113C13.4037 14.3414 11.2997 16.25 8.75 16.25C5.98857 16.25 3.75 14.0114 3.75 11.25ZM8.75 5C5.29822 5 2.5 7.79822 2.5 11.25C2.5 14.7017 5.29822 17.5 8.75 17.5C12.2017 17.5 15 14.7017 15 11.25V10.625H9.375V5H8.75Z" fill="white"/>
</svg>
